PathFileType	4	(X/Y/Z)	Patient5_TMGait_0pt45_1_left_08.trc.trc
DataRate	CameraRate	NumFrames	NumMarkers	Units	OrigDataRate	OrigDataStartFrame	OrigNumFrames
57.851239669421	57.851239669421	5	32	mm	57.851239669421	18	       141
Frame#	Time	R.ASIS			L.ASIS			Chest			R.Shoulder			Neck			L.Shoulder			L.Elbow			L.Wrist			R.Elbow			R.Wrist			L.Thigh.Superior			L.Thigh.Lateral			L.Thigh.Inferior			L.Patella			L.Shank.Superior			L.Shank.Lateral			L.Shank.Inferior			L.Heel			L.Midfoot.Lateral			L.Midfoot.Superior			L.Toe			R.Thigh.Superior			R.Thigh.Lateral			R.Thigh.Inferior			R.Patella			R.Shank.Superior			R.Shank.Lateral			R.Shank.Inferior			R.Heel			R.Midfoot.Lateral			R.Midfoot.Superior			R.Toe			
		X1	Y1	Z1	X2	Y2	Z2	X3	Y3	Z3	X4	Y4	Z4	X5	Y5	Z5	X6	Y6	Z6	X7	Y7	Z7	X8	Y8	Z8	X9	Y9	Z9	X10	Y10	Z10	X11	Y11	Z11	X12	Y12	Z12	X13	Y13	Z13	X14	Y14	Z14	X15	Y15	Z15	X16	Y16	Z16	X17	Y17	Z17	X18	Y18	Z18	X19	Y19	Z19	X20	Y20	Z20	X21	Y21	Z21	X22	Y22	Z22	X23	Y23	Z23	X24	Y24	Z24	X25	Y25	Z25	X26	Y26	Z26	X27	Y27	Z27	X28	Y28	Z28	X29	Y29	Z29	X30	Y30	Z30	X31	Y31	Z31	X32	Y32	Z32	

18	12.043857142857	1037.670264196098	961.607910494683	607.021068969116	1019.398375522180	955.630424891408	363.285604128836	1136.396880223818	1414.032412847787	492.571837004159	1060.269508764800	1479.864448950642	667.791673268949	1016.480718371705	1545.678752163069	490.159588084626	1059.824923263371	1492.857862534560	303.931224835240	934.201784840292	1188.822411500801	182.140391893163	1017.573454532564	911.997740558856	169.903438402707	1007.897615787340	1166.956500361298	829.330478052754	1222.701402444520	987.538287346242	753.573340300026	1096.624763428562	786.159573628445	338.771255100037	1064.799233610085	700.212555743808	285.466835750719	1159.000442216512	675.675561199300	345.715182823347	1213.064482828832	544.428970206036	331.454860846396	1158.570474650082	434.735773209921	354.746846075644	1074.702255376984	377.598735891402	284.456269522325	1109.813728021761	318.057490313294	366.263772593026	950.045172342101	101.113825932847	375.555709499627	1029.311565932065	73.055119624641	305.294894144490	1135.553238756618	125.541674945645	336.771737355813	1236.061167727451	77.476828948700	327.485658557052	1019.616299141642	727.274183802604	613.201919300356	921.904602053984	660.234165789550	663.995331838947	991.173043717691	599.892546472028	584.817468549035	979.488402634843	506.379627579943	608.298889085883	932.629718554579	418.699924111463	567.801367311642	863.274780324388	349.663867569461	647.336438203599	915.909884078004	280.901511911953	561.585515804838	793.530424541398	53.512313922131	517.033233686510	870.160743734128	24.782332929523	592.173789903097	976.362315217875	87.398349198735	570.344541399041	1080.516076080199	44.532556932883	572.977669913664	
19	12.061142857143	1037.576777006454	960.790510907329	606.321948541602	1020.920830306355	954.183976624090	362.715835410792	1138.466104212663	1412.808190481056	490.974581905603	1061.909760151658	1479.559913232301	665.618283368257	1018.762140733993	1544.721099016132	487.656732882616	1062.811626421765	1491.010379047452	301.759559156951	937.483087335823	1186.535876241226	180.705220701441	1021.224097921064	909.840190060381	168.864216549431	1007.169124312336	1167.361623880565	827.924379819584	1221.704606864253	987.243924129404	753.459113817607	1095.266031370005	782.722269966169	337.770473883143	1062.586280055779	696.542653681306	285.443810142474	1156.680031555748	671.997067897158	345.944649436207	1211.633609530093	544.766538100984	332.779564447287	1165.013460101613	434.081097853191	356.673197238722	1085.809199512744	370.223668055946	286.470218714469	1126.911463790270	313.420258894314	367.855423471424	986.445169553841	84.200561772512	377.549684838029	1067.549092967067	61.275793027174	307.624174818506	1169.533020413273	122.097934121045	338.319649647499	1273.437893807221	81.698548305359	329.562041617121	1017.401635585063	726.309352633349	612.644473456415	918.729513381582	660.173267262181	663.087689912074	987.627609881331	599.133525750928	584.392836975344	975.153526425543	505.615364312877	607.907082637237	927.504658550470	418.277975305630	567.280885250347	857.240129226900	350.043817187399	646.628690564804	909.732122062033	280.712352232027	561.328839216479	785.744651066113	53.533871340738	517.004241446242	862.289973329753	24.807940339402	592.148554420783	968.472095564925	87.302751161862	570.318641074474	1072.596368906562	44.542965324842	573.013466446915	
20	12.078428571429	1037.812224851234	960.064383234743	605.526921113464	1023.265478049284	952.560106215343	362.024418312090	1140.416850964079	1411.600207777456	489.169226708625	1063.200203889602	1479.147924289845	663.039130995496	1020.890258565372	1543.672478997205	484.763083112505	1065.974515168620	1489.116206130027	299.276039607318	941.144812182721	1184.150403793646	178.836314515653	1025.308595626061	907.604492529948	167.541747973127	1006.287001245381	1167.475220254014	825.904328137564	1220.321194789073	986.128463572455	753.217127756421	1094.453623230343	778.298978785658	336.583188700269	1060.201322523633	691.823601410288	285.810813317507	1154.286079636901	667.059229844265	346.430419843670	1209.241522338782	543.821847783396	335.039452147323	1169.883091784367	432.665130647017	359.327540602995	1095.625309553227	362.989509299996	289.008080315176	1141.959594778681	309.010591905539	370.008775244036	1019.990244345254	70.290710387706	379.258834612430	1102.805142763628	51.609864129049	310.096778700396	1200.451206673127	119.392020874254	340.727620607528	1306.946225383052	85.766001224653	333.070293412169	1015.747142487023	725.382629929830	611.964234047927	916.026304825540	660.138195712276	661.958198805617	984.617802303433	598.398854922801	583.893842676696	971.311850301063	504.828092133123	607.429392080791	922.840507136509	417.779289608470	566.644354854549	851.494287522956	350.466478886327	645.755299505875	903.849466956900	280.466032827266	561.004066203662	777.951708381346	53.530894825642	516.961565333678	854.432098901114	24.817791668609	592.108328376449	960.602033171519	87.234859686363	570.304390485160	1064.691035943811	44.533135229178	573.031412173066	
21	12.095714285714	1038.423816706395	959.407316853497	604.634154182552	1026.525764732906	950.878407417573	361.214356974113	1142.186482925686	1410.515864754831	487.166183146037	1063.996305125822	1478.708458663179	660.063511242315	1022.798666022175	1542.601071093041	481.467791598986	1069.248515776519	1487.251165885929	296.475351214990	945.284277080685	1181.726434644532	176.442589570326	1029.879012540900	905.325797070228	166.018694403941	1005.273620876146	1167.373002141222	823.310933291196	1218.598226266704	984.349645512839	752.760821207644	1094.584985970228	773.203469483841	335.417837902013	1058.171980258403	686.397568734138	286.664570871203	1152.237941684936	661.215206957037	347.426579238919	1206.332226847450	541.738654193661	338.469428784483	1173.244743036568	430.468895430057	362.816850181053	1103.915088914846	356.115748022058	292.109953388890	1154.357971899591	304.769103705842	372.833291900400	1048.773886825716	59.614633062162	380.756491342138	1133.185234014601	44.057462817288	312.718591152272	1226.894925430101	117.007545519253	344.111646032181	1335.231218859732	88.747106623546	338.000840541358	1014.745419505097	724.495210971233	611.105187947285	913.918169381688	660.127701227340	660.596291321052	982.262944524949	597.679250315589	583.280568539720	968.061497290539	504.012413398833	606.835557378219	918.734950772771	417.207621995181	565.878335849076	846.120005319482	350.945764862325	644.712033909372	898.309745152997	280.160145738599	560.603559303954	770.151045326344	53.502972463973	516.905815483139	846.592604488733	24.807709054356	592.053059002647	952.755007430791	87.202926531186	570.311136489751	1056.809522050409	44.501810364055	573.034189864326	
22	12.113000000000	1039.426161986249	958.779123081792	603.614795288778	1030.700334072089	949.259835006201	360.295149254797	1143.740784592763	1409.674022805474	484.978451953099	1064.180632748961	1478.331997961225	656.729226992259	1024.445732568352	1541.591561244371	477.775434790816	1072.549967201888	1485.508085207763	293.362617484156	949.974129808108	1179.328877334877	173.482263013520	1034.983185398295	903.053676528529	164.350501013850	1004.085526359134	1167.151540122639	820.197960729530	1216.570533368274	982.176859492490	751.994891472647	1095.990484865831	767.882172254348	334.528400457276	1057.070910383386	680.752058376966	288.026293829904	1150.962560238401	654.965474718084	349.135568298545	1203.425710163059	538.788199770532	343.127888400757	1175.275201306789	427.591492428667	367.092532412129	1110.606890484782	349.841051116059	295.630244203280	1163.687942541321	300.662992582105	376.275483644620	1071.198017734039	52.182268975288	382.043127404031	1157.075709376343	38.429562781691	315.420583374385	1247.701771701943	114.456816011092	348.429292791460	1357.185300744220	89.698367716033	344.199517816853	1014.444493351274	723.656177578090	610.033372439462	912.496553536580	660.145283069813	659.007318466498	980.662889130244	596.975033709220	582.526266583302	965.484479694466	503.172017941472	606.109068754997	915.271306312913	416.573612679604	564.981157248261	841.196014621594	351.498901797204	643.504264007276	893.150278408401	279.807937399197	560.126779601381	762.351169025075	53.478866395529	516.840437780803	838.780459755029	24.786236352089	591.981788302017	944.944265451701	87.211332394297	570.346576333711	1048.960976182852	44.447468529918	573.028889767662	
